<svg xmlns="http://www.w3.org/2000/svg" width="371.91" height="372.426" viewBox="0 0 371.91 372.426">
  <g id="Grupo_26" data-name="Grupo 26" transform="translate(784.656 -340.038)">
    <g id="Grupo_25" data-name="Grupo 25" transform="translate(-784.656 340.038)">
      <path id="Caminho_36" data-name="Caminho 36" d="M-783.8,476.183l-9.24,2.265L-794.38,473l25.164-6.168,1.334,5.446-9.24,2.265,5.744,23.431-6.683,1.639Z" transform="translate(923.961 -462.307)" fill="#fff"/>
      <path id="Caminho_37" data-name="Caminho 37" d="M-762.854,466.251c-.254-2.065,1.193-3.87,3.638-4.17s4.276,1.014,4.525,3.038a3.811,3.811,0,0,1-3.623,4.3C-760.758,469.716-762.6,468.316-762.854,466.251Zm1.641,6.731,6.577-.809,2.789,22.681-6.577.809Z" transform="translate(922.196 -462.038)" fill="#fff"/>
      <path id="Caminho_38" data-name="Caminho 38" d="M-706.74,482.788l-.7,13.065-6.617-.353.642-12.047c.2-3.691-1.367-5.476-4.039-5.618-2.97-.158-5.149,1.64-5.366,5.712L-723.428,495l-6.618-.352.643-12.047c.2-3.691-1.283-5.471-4.04-5.618-2.926-.156-5.107,1.643-5.324,5.715l-.611,11.453-6.617-.353,1.217-22.821,6.32.337-.14,2.63a9.255,9.255,0,0,1,7.327-2.587,8.53,8.53,0,0,1,7.309,4.134,10.276,10.276,0,0,1,8.428-3.294C-710.1,472.484-706.37,475.831-706.74,482.788Z" transform="translate(921.249 -462.539)" fill="#fff"/>
      <path id="Caminho_39" data-name="Caminho 39" d="M-698.821,486.512c1.9-6.615,8.348-9.847,15.332-7.845s10.7,8.15,8.8,14.765-8.307,9.859-15.289,7.856S-700.718,493.127-698.821,486.512Zm17.681,5.07c1.089-3.8-.664-6.775-3.849-7.688s-6.292.671-7.381,4.469.706,6.787,3.891,7.7S-682.228,495.38-681.14,491.582Z" transform="translate(918.633 -462.937)" fill="#fff"/>
      <path id="Caminho_40" data-name="Caminho 40" d="M-669.921,495.357c2.956-6.214,9.849-8.344,16.562-5.15,4.335,2.063,6.854,5.566,6.744,9.653l-5.827.285a5.7,5.7,0,0,0-3.291-5.046c-3.03-1.442-6.412-.464-8.127,3.141s-.342,6.846,2.689,8.288a5.62,5.62,0,0,0,5.991-.63l3.437,4.74c-3.065,2.587-7.391,2.881-11.726.818C-670.181,508.262-672.877,501.571-669.921,495.357Z" transform="translate(917.052 -463.534)" fill="#fff"/>
      <path id="Caminho_41" data-name="Caminho 41" d="M-624.143,519.672l-7.515,10.709-5.424-3.806,6.93-9.875c2.123-3.024,1.708-5.392-.691-7.075-2.608-1.83-5.608-1.548-8.024,1.894l-6.491,9.249-5.424-3.806,18.1-25.8,5.425,3.806-6.344,9.04a10.048,10.048,0,0,1,7.507,1.946C-621.673,509.055-620.14,513.971-624.143,519.672Z" transform="translate(915.912 -463.67)" fill="#fff"/>
      <path id="Caminho_42" data-name="Caminho 42" d="M-603.833,544.483l-12.211-12.234c-1.564,2.462-1.086,5.405,1.373,7.87a7.746,7.746,0,0,0,5.614,2.5l-.215,5.195c-3.213.208-6.366-1.147-9.276-4.063-5.58-5.591-5.693-12.739-.884-17.539,4.84-4.83,12.017-4.613,16.937.317,4.741,4.749,5.214,11.6.014,16.787C-602.841,543.673-603.412,544.123-603.833,544.483Zm-9.536-15.025,7.951,7.966a5.429,5.429,0,0,0-.594-7.328A5.41,5.41,0,0,0-613.369,529.458Z" transform="translate(914.349 -465.438)" fill="#fff"/>
      <path id="Caminho_43" data-name="Caminho 43" d="M-583.467,566.52l-10.713,7.511-3.805-5.427,9.879-6.926c3.026-2.121,3.443-4.488,1.76-6.888-1.828-2.609-4.745-3.365-8.19-.952l-9.253,6.487-3.8-5.427,18.714-13.119,3.634,5.183-2.192,1.536a10,10,0,0,1,6.811,4.46C-577.528,557.377-577.761,562.52-583.467,566.52Z" transform="translate(913.492 -466.507)" fill="#fff"/>
      <path id="Caminho_44" data-name="Caminho 44" d="M-578.673,584.7l-4.191-1.571-5.28,2.446-2.784-6.013,28.6-13.242,2.784,6.012-16.189,7.5,12.4,4.933,3.319,7.169-12.786-4.565-7.593,14.937-3.374-7.285Z" transform="translate(912.557 -467.883)" fill="#fff"/>
      <path id="Caminho_45" data-name="Caminho 45" d="M-569.03,600.467c6.641-1.806,12.748,2.036,14.655,9.046s-1.425,13.375-8.066,15.181-12.738-2-14.643-9S-575.671,602.272-569.03,600.467Zm4.827,17.75c3.813-1.037,5.45-4.08,4.58-7.278s-3.833-5.032-7.646-4-5.439,4.121-4.57,7.318S-568.015,619.253-564.2,618.217Z" transform="translate(911.812 -469.772)" fill="#fff"/>
      <path id="Caminho_46" data-name="Caminho 46" d="M-542.368,637.614l-29.471,3.963-.918-6.82,24-3.227-.792-5.894,5.473-.735Z" transform="translate(911.539 -471.166)" fill="#fff"/>
      <path id="Caminho_47" data-name="Caminho 47" d="M-549,668.081a3.9,3.9,0,0,1-3.974-4.178,3.937,3.937,0,0,1,4.18-4.016c1.1.027,1.907.217,4.218,1.253l6.053,2.617-.1,4.2-6.7-2.038A3.691,3.691,0,0,1-549,668.081Z" transform="translate(910.43 -473.127)" fill="#fff"/>
      <path id="Caminho_48" data-name="Caminho 48" d="M-553.749,709.558l2.719-9.119,5.373,1.6-7.406,24.83-5.374-1.6,2.72-9.118-23.12-6.9,1.967-6.594Z" transform="translate(911.88 -475.4)" fill="#fff"/>
      <path id="Caminho_49" data-name="Caminho 49" d="M-562.151,730.2l-2.632,6.083-20.976-9.075,2.631-6.082Zm6.637,1.992c1.911.826,2.735,2.988,1.756,5.249s-3.04,3.174-4.911,2.365a3.81,3.81,0,0,1-1.873-5.3C-559.564,732.248-557.424,731.368-555.514,732.195Z" transform="translate(912.268 -476.56)" fill="#fff"/>
      <path id="Caminho_50" data-name="Caminho 50" d="M-598.675,772.288l-10.9-7.24,3.667-5.52,10.05,6.677c3.079,2.045,5.411,1.6,6.892-.625,1.645-2.478,1.206-5.269-2.192-7.526l-9.556-6.346,3.667-5.521,10.05,6.676c3.079,2.046,5.365,1.676,6.892-.624,1.623-2.442,1.182-5.234-2.215-7.49l-9.556-6.347,3.667-5.521,19.039,12.647-3.5,5.273-2.195-1.458a9.252,9.252,0,0,1-1.5,7.626,8.533,8.533,0,0,1-7.275,4.2,10.279,10.279,0,0,1-1.445,8.934C-588.09,774.627-592.871,776.143-598.675,772.288Z" transform="translate(913.603 -477.219)" fill="#fff"/>
      <path id="Caminho_51" data-name="Caminho 51" d="M-605.194,777.439c4.74,4.989,4.253,12.186-1.012,17.189s-12.449,5.088-17.187.1-4.285-12.158.981-17.161S-609.933,772.451-605.194,777.439Zm-13.334,12.667c2.72,2.864,6.176,2.862,8.578.581s2.612-5.762-.109-8.625-6.207-2.834-8.609-.552S-621.249,787.242-618.529,790.106Z" transform="translate(914.561 -479.51)" fill="#fff"/>
      <path id="Caminho_52" data-name="Caminho 52" d="M-627.456,797.879c3.866,5.691,2.219,12.714-3.928,16.891-3.97,2.7-8.266,3.1-11.736.939l2.7-5.172a5.7,5.7,0,0,0,6.017-.288c2.774-1.885,3.64-5.3,1.4-8.6s-5.735-3.755-8.51-1.869A5.621,5.621,0,0,0-644,805.268l-5.826.569c-.682-3.952,1.251-7.833,5.22-10.53C-638.459,791.131-631.323,792.188-627.456,797.879Z" transform="translate(915.867 -480.576)" fill="#fff"/>
      <path id="Caminho_53" data-name="Caminho 53" d="M-672.436,824.76l-5.443-11.9,6.025-2.756,5.02,10.971c1.538,3.361,3.789,4.2,6.455,2.98,2.9-1.325,4.17-4.057,2.421-7.882l-4.7-10.275,6.026-2.757,13.113,28.664-6.026,2.756-4.6-10.044a10.047,10.047,0,0,1-5.475,5.495C-664.522,832.257-669.537,831.1-672.436,824.76Z" transform="translate(917.431 -481.157)" fill="#fff"/>
      <path id="Caminho_54" data-name="Caminho 54" d="M-703.25,830.027l16.743-4.321c-1.328-2.6-4.108-3.678-7.482-2.808a7.749,7.749,0,0,0-5,3.572l-4.37-2.82c1.452-2.876,4.218-4.906,8.209-5.936,7.651-1.975,13.87,1.554,15.57,8.136,1.709,6.623-2.12,12.7-8.867,14.441-6.5,1.677-12.643-1.389-14.479-8.5C-703.054,831.293-703.152,830.573-703.25,830.027Zm17.791-.6-10.9,2.813a5.432,5.432,0,0,0,6.619,3.207A5.411,5.411,0,0,0-685.459,829.429Z" transform="translate(918.859 -481.943)" fill="#fff"/>
      <path id="Caminho_55" data-name="Caminho 55" d="M-732.91,836.4l-1.024-13.043,6.606-.519.945,12.026c.29,3.685,2.116,5.245,5.039,5.016,3.175-.25,5.309-2.378,4.98-6.57l-.885-11.264,6.606-.519,1.791,22.782-6.31.5-.21-2.668a10.006,10.006,0,0,1-7.3,3.6C-728.052,846.162-732.364,843.347-732.91,836.4Z" transform="translate(920.573 -482.188)" fill="#fff"/>
      <path id="Caminho_56" data-name="Caminho 56" d="M-751.215,831.172l3.476-2.82.565-5.791,6.594.643-3.056,31.367-6.6-.643,1.73-17.756-10.529,8.193-7.863-.766,10.409-8.716-9.037-14.111,7.99.78Z" transform="translate(922.421 -482.145)" fill="#fff"/>
      <path id="Caminho_57" data-name="Caminho 57" d="M-769.171,831.579c-1.8,6.642-8.2,9.967-15.21,8.068s-10.816-7.99-9.017-14.63,8.158-9.978,15.168-8.079S-767.372,824.939-769.171,831.579Zm-17.75-4.807c-1.033,3.812.764,6.762,3.962,7.629s6.278-.763,7.312-4.575-.805-6.775-4-7.64S-785.888,822.959-786.921,826.772Z" transform="translate(923.931 -481.901)" fill="#fff"/>
      <path id="Caminho_58" data-name="Caminho 58" d="M-814.561,835.8l11.5-27.424,6.347,2.663-9.368,22.332,5.485,2.3-2.136,5.093Z" transform="translate(925.093 -481.45)" fill="#fff"/>
      <path id="Caminho_59" data-name="Caminho 59" d="M-836.767,814.92a3.9,3.9,0,0,1,5.617-1.3,3.936,3.936,0,0,1,1.338,5.64c-.584.937-1.156,1.532-3.222,3l-5.328,3.885-3.568-2.226,5.161-4.741A3.689,3.689,0,0,1-836.767,814.92Z" transform="translate(926.627 -481.706)" fill="#fff"/>
      <path id="Caminho_60" data-name="Caminho 60" d="M-861.252,799.342l6.979,6.469-3.812,4.112-19-17.616,3.813-4.113,6.979,6.469,16.4-17.7,5.047,4.678Z" transform="translate(928.597 -479.69)" fill="#fff"/>
      <path id="Caminho_61" data-name="Caminho 61" d="M-880.435,787.868c-1.583,1.351-3.886,1.138-5.485-.735s-1.51-4.126.04-5.45a3.81,3.81,0,0,1,5.583.652C-878.7,784.21-878.852,786.518-880.435,787.868Zm4.71-5.08-4.3-5.04,17.381-14.831,4.3,5.04Z" transform="translate(929.158 -478.902)" fill="#fff"/>
      <path id="Caminho_62" data-name="Caminho 62" d="M-898.378,730.832l11.291-6.6,3.346,5.718-10.411,6.09c-3.19,1.866-3.819,4.153-2.469,6.462,1.5,2.567,4.2,3.4,7.722,1.339l9.9-5.79,3.345,5.718-10.411,6.09c-3.189,1.866-3.862,4.081-2.467,6.463,1.479,2.529,4.18,3.36,7.7,1.3l9.9-5.791,3.345,5.718-19.722,11.539-3.2-5.463,2.273-1.329a9.253,9.253,0,0,1-6.19-4.693,8.53,8.53,0,0,1-.571-8.377A10.27,10.27,0,0,1-902.383,744C-905.129,739.309-904.388,734.35-898.378,730.832Z" transform="translate(930.101 -476.734)" fill="#fff"/>
      <path id="Caminho_63" data-name="Caminho 63" d="M-899.126,723.115c-6.568,2.051-12.814-1.561-14.979-8.495s.928-13.417,7.5-15.467,12.8,1.52,14.966,8.454S-892.557,721.064-899.126,723.115Zm-5.482-17.556c-3.771,1.177-5.295,4.279-4.307,7.441s4.017,4.887,7.788,3.709,5.282-4.32,4.294-7.482S-900.836,704.381-904.608,705.559Z" transform="translate(930.711 -475.296)" fill="#fff"/>
      <path id="Caminho_64" data-name="Caminho 64" d="M-907.606,694.182c-6.815.945-12.383-3.644-13.4-11.006-.66-4.754.882-8.784,4.357-10.938l3.441,4.712a5.7,5.7,0,0,0-2.408,5.522c.462,3.324,3.137,5.612,7.092,5.063s5.907-3.478,5.446-6.8a5.624,5.624,0,0,0-3.819-4.659l2.071-5.475c3.846,1.138,6.468,4.591,7.127,9.346C-896.68,687.307-900.79,693.237-907.606,694.182Z" transform="translate(931.068 -473.728)" fill="#fff"/>
      <path id="Caminho_65" data-name="Caminho 65" d="M-912.579,642.029l13.078.363-.184,6.625-12.059-.336c-3.695-.1-5.44,1.549-5.522,4.478-.088,3.185,1.8,5.532,6.005,5.649l11.294.314-.184,6.624-31.506-.876.184-6.625,11.04.307a10.043,10.043,0,0,1-2.516-7.336C-922.8,645.823-919.542,641.835-912.579,642.029Z" transform="translate(931.656 -472.126)" fill="#fff"/>
      <path id="Caminho_66" data-name="Caminho 66" d="M-902.974,611.941l-3.482,16.935c2.916-.05,5.11-2.072,5.812-5.483a7.754,7.754,0,0,0-1.009-6.063l4.455-2.684c1.944,2.568,2.551,5.946,1.721,9.982-1.591,7.74-7.495,11.774-14.154,10.405-6.7-1.378-10.473-7.488-9.07-14.313,1.352-6.575,6.806-10.744,14.005-9.264C-904.2,611.559-903.506,611.788-902.974,611.941Zm-7.286,16.241,2.267-11.027a5.43,5.43,0,0,0-5.789,4.534A5.411,5.411,0,0,0-910.26,628.181Z" transform="translate(930.946 -470.396)" fill="#fff"/>
      <path id="Caminho_67" data-name="Caminho 67" d="M-895.865,582.464l12.16,4.826-2.445,6.159L-897.362,589c-3.435-1.364-5.641-.412-6.722,2.313-1.176,2.961-.206,5.814,3.7,7.366l10.5,4.168L-892.324,609l-21.24-8.431,2.334-5.883,2.487.987a10.005,10.005,0,0,1-.013-8.141C-906.766,582.524-902.339,579.893-895.865,582.464Z" transform="translate(930.642 -468.732)" fill="#fff"/>
      <path id="Caminho_68" data-name="Caminho 68" d="M-883.61,568.157l.988,4.366,4.943,3.073-3.5,5.629-26.771-16.641,3.5-5.629,15.154,9.42-2.681-13.071,4.171-6.711,3.2,13.2,16.657-1.851-4.238,6.819Z" transform="translate(930.327 -466.889)" fill="#fff"/>
      <path id="Caminho_69" data-name="Caminho 69" d="M-875.293,552.091c-5.161-4.551-5.314-11.763-.512-17.211s11.95-6.169,17.111-1.619,5.343,11.73.541,17.179S-870.131,556.641-875.293,552.091Zm12.162-13.8c-2.963-2.612-6.4-2.305-8.595.179s-2.092,5.971.871,8.582,6.432,2.273,8.623-.212S-860.169,540.907-863.131,538.3Z" transform="translate(928.721 -465.862)" fill="#fff"/>
      <path id="Caminho_70" data-name="Caminho 70" d="M-859.414,509.2l19.549,22.4-5.185,4.524-15.919-18.243-4.48,3.91-3.631-4.16Z" transform="translate(928.148 -464.681)" fill="#fff"/>
      <path id="Caminho_71" data-name="Caminho 71" d="M-829.661,498.862a3.9,3.9,0,0,1-1.3,5.618,3.937,3.937,0,0,1-5.655-1.279c-.584-.936-.867-1.711-1.275-4.211l-1.147-6.493,3.567-2.226,1.99,6.72A3.691,3.691,0,0,1-829.661,498.862Z" transform="translate(926.465 -463.62)" fill="#fff"/>
    </g>
  </g>
</svg>
